<?xml version="1.0" encoding="UTF-8" standalone="no"?>
<!DOCTYPE svg PUBLIC "-//W3C//DTD SVG 1.1//EN" "http://www.w3.org/Graphics/SVG/1.1/DTD/svg11.dtd">
<svg width="100%" height="100%" viewBox="0 0 2481 2481" version="1.1" xmlns="http://www.w3.org/2000/svg" xmlns:xlink="http://www.w3.org/1999/xlink" xml:space="preserve" xmlns:serif="http://www.serif.com/" style="fill-rule:evenodd;clip-rule:evenodd;stroke-linejoin:round;stroke-miterlimit:2;">
  <g>
    <g>
      <path d="M1398.77,2229.91c596.923,0 1080.99,20.598 1080.31,45.968c-0.683,25.37 -485.863,45.967 -1082.79,45.967c-596.923,-0 -1080.99,-20.597 -1080.31,-45.967c0.683,-25.37 485.863,-45.968 1082.79,-45.968Z" style="fill:#1f1c2e;" />
      <g>
        <path d="M1051.25,2023.69c-0,-42.951 -34.871,-77.822 -77.822,-77.822l-155.645,-0c-42.951,-0 -77.822,34.871 -77.822,77.822l-0,174.37c-0,42.952 34.871,77.823 77.822,77.823l155.645,-0c42.951,-0 77.822,-34.871 77.822,-77.823l-0,-174.37Z" style="fill:#1f1c2e;" />
        <path d="M1397.53,2023.69c0,-42.951 -34.871,-77.822 -77.822,-77.822l-155.644,-0c-42.952,-0 -77.823,34.871 -77.823,77.822l0,174.37c0,42.952 34.871,77.823 77.823,77.823l155.644,-0c42.951,-0 77.822,-34.871 77.822,-77.823l0,-174.37Z" style="fill:#1f1c2e;" />
        <path d="M1727.68,1992.91c0,-42.952 -34.871,-77.822 -77.822,-77.822l-155.644,-0c-42.952,-0 -77.823,34.87 -77.823,77.822l0,174.37c0,42.951 34.871,77.822 77.823,77.822l155.644,0c42.951,0 77.822,-34.871 77.822,-77.822l0,-174.37Z" style="fill:#1f1c2e;" />
        <path d="M2073.97,1956.47c0,-42.951 -34.871,-77.822 -77.822,-77.822l-155.645,-0c-42.951,-0 -77.822,34.871 -77.822,77.822l0,210.809c0,42.951 34.871,77.822 77.822,77.822l155.645,0c42.951,0 77.822,-34.871 77.822,-77.822l0,-210.809Z" style="fill:#1f1c2e;" />
        <ellipse cx="1397.13" cy="1274.73" rx="845.755" ry="856.5" style="fill:#1f1c2e;" />
        <ellipse cx="1052.12" cy="1818.95" rx="352.591" ry="357.071" style="fill:#1f1c2e;" />
        <ellipse cx="1052.12" cy="1818.95" rx="289.154" ry="283.349" style="fill:#f3f6fd;" />
        <ellipse cx="1757.3" cy="1774.16" rx="352.591" ry="357.071" style="fill:#1f1c2e;" />
        <ellipse cx="1757.3" cy="1774.16" rx="289.154" ry="283.349" style="fill:#f3f6fd;" />
        <ellipse cx="2008.31" cy="1340.11" rx="352.591" ry="357.071" style="fill:#1f1c2e;" />
        <ellipse cx="2008.31" cy="1340.11" rx="289.154" ry="283.349" style="fill:#f3f6fd;" />
        <clipPath id="_clip1">
          <ellipse cx="2008.31" cy="1340.11" rx="289.154" ry="283.349" />
        </clipPath>
        <g clip-path="url(#_clip1)">
          <ellipse cx="1900.45" cy="1485.28" rx="316.728" ry="320.752" style="fill:#1f1c2e;" />
        </g>
        <ellipse cx="1828.05" cy="852.133" rx="352.591" ry="357.071" style="fill:#1f1c2e;" />
        <ellipse cx="1828.05" cy="852.133" rx="289.154" ry="283.349" style="fill:#f3f6fd;" />
        <ellipse cx="1404.71" cy="1279.87" rx="683.937" ry="700.671" style="fill:#a4cbe8;" />
        <ellipse cx="1241.88" cy="1863.29" rx="256.118" ry="247.58" style="fill:#1f1c2e;" />
        <path d="M1579.04,514.315c417.223,95.01 677.839,515.181 581.623,937.705c-96.217,422.523 -513.065,688.423 -930.288,593.413c-417.223,-95.01 -677.839,-515.181 -581.622,-937.705c96.216,-422.523 513.064,-688.423 930.287,-593.413Z" style="fill:#f3f6fd;" />
        <clipPath id="_clip2">
          <path d="M1579.04,514.315c417.223,95.01 677.839,515.181 581.623,937.705c-96.217,422.523 -513.065,688.423 -930.288,593.413c-417.223,-95.01 -677.839,-515.181 -581.622,-937.705c96.216,-422.523 513.064,-688.423 930.287,-593.413Z" />
        </clipPath>
        <g clip-path="url(#_clip2)">
          <ellipse cx="1251.51" cy="1102.09" rx="732.96" ry="742.741" style="fill:#fefefe;" />
        </g>
        <ellipse cx="1013.35" cy="579.154" rx="435.4" ry="420.887" style="fill:#1f1c2e;" />
        <ellipse cx="590.759" cy="579.154" rx="256.118" ry="247.58" style="fill:#1f1c2e;" />
        <ellipse cx="1256.66" cy="876.251" rx="320.147" ry="309.476" style="fill:#1f1c2e;" />
        <ellipse cx="1275.87" cy="1199.68" rx="198.491" ry="196.229" style="fill:#1f1c2e;" />
        <ellipse cx="1269" cy="1193.33" rx="128.531" ry="125.841" style="fill:#ffd5ac;" />
        <ellipse cx="590.759" cy="579.154" rx="192.088" ry="185.685" style="fill:#fefefe;" />
        <ellipse cx="1256.66" cy="876.251" rx="256.118" ry="247.58" style="fill:#f3f6fd;" />
        <ellipse cx="1218.25" cy="789.598" rx="217.7" ry="210.443" style="fill:#fefefe;" />
        <ellipse cx="848.054" cy="724.376" rx="256.118" ry="247.58" style="fill:#1f1c2e;" />
        <ellipse cx="686.803" cy="1136.21" rx="493.027" ry="409.788" style="fill:#1f1c2e;" />
        <ellipse cx="752.496" cy="1056.38" rx="96.044" ry="79.829" style="fill:#fefefe;" />
        <rect x="633.759" y="949.248" width="232.35" height="118.647" style="fill:#1f1c2e;" />
        <ellipse cx="1013.35" cy="579.154" rx="371.371" ry="358.992" style="fill:#f3f6fd;" />
        <ellipse cx="968.532" cy="556.744" rx="326.55" ry="319.507" style="fill:#fefefe;" />
        <path d="M371.139,1111.33c14.478,-23.166 43.435,-23.166 57.914,-11.583c14.479,11.583 14.479,34.748 -0,57.914c-10.135,17.374 -36.196,34.749 -57.914,46.331c-21.718,-11.582 -47.779,-28.957 -57.915,-46.331c-14.478,-23.166 -14.478,-46.331 0,-57.914c14.479,-11.583 43.436,-11.583 57.915,11.583Z" style="fill:#fefefe;" />
        <ellipse cx="1828.05" cy="814.982" rx="251.241" ry="246.197" style="fill:#fefefe;" />
      </g>
    </g>
    <path d="M160.862,525.252c-0,25.347 -7.8,45.171 -23.398,59.47c-15.599,14.298 -34.448,21.448 -56.546,21.448c-21.448,-0 -40.134,-7.15 -56.058,-21.448c-15.923,-14.299 -23.885,-34.123 -23.885,-59.47l-0,-257.379c-0,-25.998 7.962,-45.821 23.885,-59.47c15.924,-13.649 34.61,-20.474 56.058,-20.474c22.098,0 40.947,6.825 56.546,20.474c15.598,13.649 23.398,33.472 23.398,59.47l-0,257.379Zm-0,183.579c-0,22.098 -7.8,41.109 -23.398,57.032c-15.599,15.924 -34.448,23.886 -56.546,23.886c-22.098,-0 -41.109,-7.962 -57.032,-23.886c-15.924,-15.923 -23.886,-34.934 -23.886,-57.032c0,-22.099 7.962,-41.11 23.886,-57.033c15.923,-15.924 34.934,-23.886 57.032,-23.886c22.098,0 40.947,7.962 56.546,23.886c15.598,15.923 23.398,34.934 23.398,57.033Z" style="fill:#1f1c2e;fill-rule:nonzero;" />
  </g>
</svg>