<?xml version="1.0" encoding="UTF-8" standalone="no"?><!DOCTYPE svg PUBLIC "-//W3C//DTD SVG 1.1//EN" "http://www.w3.org/Graphics/SVG/1.1/DTD/svg11.dtd"><svg width="100%" height="100%" viewBox="0 0 2481 2481" version="1.1" xmlns="http://www.w3.org/2000/svg" xmlns:xlink="http://www.w3.org/1999/xlink" xml:space="preserve" xmlns:serif="http://www.serif.com/" style="fill-rule:evenodd;clip-rule:evenodd;stroke-linejoin:round;stroke-miterlimit:2;"><g><g><path d="M1269.39,1907.1c595.284,96.674 1062.36,275.026 1042.38,398.032c-19.976,123.007 -519.489,144.385 -1114.77,47.711c-595.284,-96.674 -1062.36,-275.026 -1042.38,-398.032c19.976,-123.007 519.489,-144.385 1114.77,-47.711Z" style="fill:#eee;"/><g><path d="M640.337,1333.54c-0,-23.192 -17.978,-45.933 -40.121,-50.752l-80.241,-17.463c-22.143,-4.819 -40.121,10.097 -40.121,33.289l0,576.371c0,23.192 17.978,45.934 40.121,50.753l80.241,17.463c22.143,4.819 40.121,-10.098 40.121,-33.29l-0,-576.371Z" style="fill:#d2b289;"/><path d="M2046.28,1621.88c-0,-23.192 -17.978,-45.934 -40.121,-50.753l-80.241,-17.463c-22.143,-4.819 -40.121,10.098 -40.121,33.29l0,599.586c0,23.192 17.978,45.934 40.121,50.753l80.241,17.463c22.143,4.819 40.121,-10.098 40.121,-33.29l-0,-599.586Z" style="fill:#d2b289;"/><path d="M2139.15,1955.6c0,-20.586 -15.956,-40.771 -35.611,-45.048l-1680.94,-365.825c-19.654,-4.278 -35.611,8.962 -35.611,29.547l-0,74.596c-0,20.585 15.957,40.771 35.611,45.048l1680.94,365.825c19.655,4.278 35.611,-8.962 35.611,-29.548l0,-74.595Z" style="fill:#d2b289;"/><path d="M2139.15,1718.51c0,-20.585 -15.956,-40.77 -35.611,-45.048l-1680.94,-365.825c-19.654,-4.277 -35.611,8.963 -35.611,29.548l-0,74.596c-0,20.585 15.957,40.77 35.611,45.048l1680.94,365.825c19.655,4.277 35.611,-8.963 35.611,-29.548l0,-74.596Z" style="fill:#d2b289;"/></g></g><g><g><path d="M682.582,1342.47c12.027,-10.7 13.442,-29.546 3.156,-42.059l-37.272,-45.343c-10.286,-12.513 -28.402,-13.984 -40.429,-3.284l-112.542,100.121c-12.028,10.701 -13.442,29.547 -3.157,42.06l37.273,45.343c10.285,12.512 28.401,13.984 40.429,3.283l112.542,-100.121Z" style="fill:#ffefe3;"/><g><clipPath id="_clip1"><path d="M683.26,1343.29c12.028,-10.7 13.442,-29.546 3.156,-42.059l-37.272,-45.343c-10.286,-12.513 -28.401,-13.984 -40.429,-3.284l-112.542,100.122c-12.028,10.7 -13.442,29.546 -3.156,42.059l37.272,45.343c10.286,12.513 28.401,13.984 40.429,3.284l112.542,-100.122Z"/></clipPath><g clip-path="url(#_clip1)"><path d="M647.267,1442.68l-120.162,-146.18l-156.128,138.897l120.162,146.18l156.128,-138.897Z" style="fill:#564a3a;"/></g></g></g><g><path d="M1810.56,1298.04c-12.701,-9.822 -30.678,-7.068 -40.119,6.145l-34.213,47.883c-9.441,13.213 -6.794,31.915 5.907,41.737l118.845,91.901c12.701,9.822 30.678,7.069 40.119,-6.145l34.213,-47.882c9.441,-13.214 6.794,-31.915 -5.907,-41.737l-118.845,-91.902Z" style="fill:#ffefe3;"/><g><clipPath id="_clip2"><path d="M1810.56,1298.04c-12.701,-9.822 -30.678,-7.068 -40.119,6.145l-34.213,47.883c-9.441,13.213 -6.794,31.915 5.907,41.737l118.845,91.901c12.701,9.822 30.678,7.069 40.119,-6.145l34.213,-47.882c9.441,-13.214 6.794,-31.915 -5.907,-41.737l-118.845,-91.902Z"/></clipPath><g clip-path="url(#_clip2)"><path d="M1911.7,1312.46l-110.297,154.367l164.871,127.494l110.297,-154.367l-164.871,-127.494Z" style="fill:#564a3a;"/></g></g></g><path d="M1614.88,711.614c-0,-248.987 -194.311,-451.134 -433.649,-451.134l-141.187,0c-239.338,0 -433.649,202.147 -433.649,451.134l0,230.414c0,248.987 194.311,451.133 433.649,451.133l141.187,0c239.338,0 433.649,-202.146 433.649,-451.133l-0,-230.414Z" style="fill:#ffefe3;"/><path d="M680.016,486.711c0,-42.616 -33.257,-77.215 -74.222,-77.215l-79.943,-0c-40.964,-0 -74.221,34.599 -74.221,77.215l-0,25.139c-0,42.616 33.257,77.215 74.221,77.215l79.943,-0c40.965,-0 74.222,-34.599 74.222,-77.215l0,-25.139Z" style="fill:#ffefe3;"/><g><clipPath id="_clip3"><path d="M680.016,486.711c0,-42.616 -33.257,-77.215 -74.222,-77.215l-79.943,-0c-40.964,-0 -74.221,34.599 -74.221,77.215l-0,25.139c-0,42.616 33.257,77.215 74.221,77.215l79.943,-0c40.965,-0 74.222,-34.599 74.222,-77.215l0,-25.139Z"/></clipPath><g clip-path="url(#_clip3)"><path d="M661.34,502.493c-0,-30.854 -24.079,-55.904 -53.738,-55.904l-57.88,0c-29.658,0 -53.737,25.05 -53.737,55.904l0,18.202c0,30.854 24.079,55.904 53.737,55.904l57.88,0c29.659,0 53.738,-25.05 53.738,-55.904l-0,-18.202Z" style="fill:#d2b289;"/></g></g><g><ellipse cx="569.834" cy="656.741" rx="126.764" ry="133.571" style="fill:#c8f7dc;"/><ellipse cx="833.47" cy="462.618" rx="126.764" ry="133.571" style="fill:#c8f7dc;"/><ellipse cx="1032.05" cy="446.589" rx="126.764" ry="133.571" style="fill:#c8f7dc;"/><path d="M1179.2,318.361c0,-18.675 -14.574,-33.837 -32.526,-33.837l-255.076,-0c-17.952,-0 -32.526,15.162 -32.526,33.837l-0,67.676c-0,18.676 14.574,33.838 32.526,33.838l255.076,-0c17.952,-0 32.526,-15.162 32.526,-33.838l0,-67.676Z" style="fill:#c8f7dc;"/><path d="M1881.08,423.882c-0,-60.204 -46.984,-109.083 -104.856,-109.083l-209.709,0c-57.871,0 -104.855,48.879 -104.855,109.083l-0,805.877c-0,60.205 46.984,109.083 104.855,109.083l209.709,0c57.872,0 104.856,-48.878 104.856,-109.083l-0,-805.877Z" style="fill:#c8f7dc;"/><path d="M1707.32,1169.21c-0,-34.157 -26.656,-61.888 -59.489,-61.888l-867.947,0c-32.833,0 -59.489,27.731 -59.489,61.888l0,123.776c0,34.157 26.656,61.888 59.489,61.888l867.947,-0c32.833,-0 59.489,-27.731 59.489,-61.888l-0,-123.776Z" style="fill:#c8f7dc;"/><path d="M1608.03,1369.74c0,-21.181 -16.53,-38.378 -36.89,-38.378l-538.23,0c-20.361,0 -36.891,17.197 -36.891,38.378l-0,76.756c-0,21.181 16.53,38.378 36.891,38.378l538.23,-0c20.36,-0 36.89,-17.197 36.89,-38.378l0,-76.756Z" style="fill:#c8f7dc;"/><ellipse cx="1201.54" cy="437.684" rx="126.764" ry="133.571" style="fill:#c8f7dc;"/><ellipse cx="1365.88" cy="455.494" rx="126.764" ry="133.571" style="fill:#c8f7dc;"/><ellipse cx="1365.88" cy="455.494" rx="126.764" ry="133.571" style="fill:#c8f7dc;"/><ellipse cx="1477.15" cy="854.424" rx="126.764" ry="133.571" style="fill:#c8f7dc;"/><ellipse cx="1389.68" cy="1069.92" rx="126.764" ry="133.571" style="fill:#c8f7dc;"/><ellipse cx="1232.69" cy="1123.35" rx="99.722" ry="105.076" style="fill:#c8f7dc;"/><ellipse cx="1048.66" cy="1173.21" rx="122.832" ry="128.228" style="fill:#c8f7dc;"/><ellipse cx="841.521" cy="1160.75" rx="122.832" ry="128.228" style="fill:#c8f7dc;"/><ellipse cx="702.856" cy="1064.58" rx="122.832" ry="128.228" style="fill:#c8f7dc;"/><ellipse cx="661.912" cy="871.342" rx="81.888" ry="85.485" style="fill:#c8f7dc;"/><ellipse cx="649.356" cy="711.059" rx="94.444" ry="97.062" style="fill:#c8f7dc;"/><ellipse cx="661.34" cy="561.461" rx="103.571" ry="105.967" style="fill:#c8f7dc;"/><ellipse cx="722.465" cy="400.285" rx="92.96" ry="97.952" style="fill:#c8f7dc;"/><ellipse cx="839.04" cy="302.333" rx="92.96" ry="97.952" style="fill:#c8f7dc;"/><ellipse cx="984.054" cy="241.781" rx="131.835" ry="138.914" style="fill:#c8f7dc;"/><ellipse cx="1215.15" cy="216.847" rx="160.92" ry="163.847" style="fill:#c8f7dc;"/><ellipse cx="1461.66" cy="241.781" rx="160.92" ry="163.847" style="fill:#c8f7dc;"/><ellipse cx="1682" cy="275.619" rx="107.349" ry="115.761" style="fill:#c8f7dc;"/><ellipse cx="1795.24" cy="425.218" rx="113.238" ry="115.761" style="fill:#c8f7dc;"/><ellipse cx="1889.39" cy="557.008" rx="80.209" ry="87.266" style="fill:#c8f7dc;"/><ellipse cx="1919.32" cy="749.35" rx="152.937" ry="151.381" style="fill:#c8f7dc;"/><ellipse cx="1943.84" cy="935.416" rx="112.41" ry="111.266" style="fill:#c8f7dc;"/><ellipse cx="1943.84" cy="935.416" rx="112.41" ry="111.266" style="fill:#c8f7dc;"/><ellipse cx="1943.84" cy="1093.97" rx="99.868" ry="98.851" style="fill:#c8f7dc;"/><ellipse cx="1878.23" cy="1248.91" rx="99.868" ry="98.851" style="fill:#c8f7dc;"/><ellipse cx="1676.63" cy="1384.64" rx="142.665" ry="141.213" style="fill:#c8f7dc;"/><ellipse cx="1358.77" cy="1447.6" rx="135.067" ry="133.692" style="fill:#c8f7dc;"/><ellipse cx="1146.85" cy="1475.59" rx="89.195" ry="76.191" style="fill:#c8f7dc;"/><ellipse cx="945.518" cy="1412.76" rx="137.809" ry="129.124" style="fill:#c8f7dc;"/><ellipse cx="738.376" cy="1353.96" rx="86.452" ry="88.139" style="fill:#c8f7dc;"/><ellipse cx="644.567" cy="1225.75" rx="101.513" ry="102.405" style="fill:#c8f7dc;"/><ellipse cx="587.382" cy="1047.66" rx="101.513" ry="102.405" style="fill:#c8f7dc;"/><ellipse cx="571.975" cy="887.37" rx="101.513" ry="102.405" style="fill:#c8f7dc;"/><ellipse cx="1547.08" cy="1460.45" rx="92.269" ry="91.33" style="fill:#c8f7dc;"/></g><g><path d="M1650.68,523.804c0,-42.616 -33.258,-77.215 -74.222,-77.215l-79.943,0c-40.964,0 -74.222,34.599 -74.222,77.215l0,25.14c0,42.615 33.258,77.214 74.222,77.214l79.943,0c40.964,0 74.222,-34.599 74.222,-77.214l0,-25.14Z" style="fill:#ffefe3;"/><path d="M1608.18,552.052c-0,-30.854 -24.079,-55.904 -53.738,-55.904l-57.88,0c-29.658,0 -53.737,25.05 -53.737,55.904l0,18.202c0,30.854 24.079,55.904 53.737,55.904l57.88,0c29.659,0 53.738,-25.05 53.738,-55.904l-0,-18.202Z" style="fill:#d2b289;"/><ellipse cx="1434.36" cy="651.398" rx="126.764" ry="133.571" style="fill:#c8f7dc;"/></g><g><path d="M1974.67,1219.91c-12.997,-9.394 -30.88,-6.042 -39.909,7.479l-32.72,48.999c-9.03,13.521 -5.808,32.125 7.189,41.518l121.615,87.893c12.997,9.393 30.88,6.042 39.91,-7.48l32.72,-48.998c9.029,-13.522 5.807,-32.126 -7.19,-41.519l-121.615,-87.892Z" style="fill:#ffefe3;"/><g><clipPath id="_clip4"><path d="M1974.67,1219.91c-12.997,-9.394 -30.88,-6.042 -39.909,7.479l-32.72,48.999c-9.03,13.521 -5.808,32.125 7.189,41.518l121.615,87.893c12.997,9.393 30.88,6.042 39.91,-7.48l32.72,-48.998c9.029,-13.522 5.807,-32.126 -7.19,-41.519l-121.615,-87.892Z"/></clipPath><g clip-path="url(#_clip4)"><path d="M2076.21,1230.95l-105.485,157.965l168.714,121.932l105.485,-157.965l-168.714,-121.932Z" style="fill:#564a3a;"/></g></g></g><ellipse cx="1863.2" cy="1219.04" rx="99.868" ry="98.851" style="fill:#c8f7dc;"/><g><path d="M1698.81,818.481c67.25,20.074 105.981,93.901 86.439,164.761c-19.544,70.861 -90.009,112.094 -157.259,92.021c-67.249,-20.074 -105.981,-93.901 -86.438,-164.761c19.544,-70.861 90.009,-112.094 157.258,-92.021Z" style="fill:#fff;fill-opacity:0.53;"/><path d="M1545.07,1017.76c67.25,20.074 105.982,93.901 86.438,164.761c-19.543,70.861 -90.008,112.094 -157.258,92.021c-67.249,-20.073 -105.981,-93.9 -86.438,-164.76c19.543,-70.862 90.008,-112.095 157.258,-92.022Z" style="fill:#fff;fill-opacity:0.53;"/><path d="M1669.41,806.325c67.25,20.073 105.981,93.9 86.438,164.761c-19.543,70.861 -90.008,112.094 -157.258,92.02c-67.25,-20.073 -105.981,-93.899 -86.438,-164.761c19.543,-70.86 90.008,-112.093 157.258,-92.02Z" style="fill:#c8f7dc;"/><path d="M1528.2,988.365c67.25,20.072 105.982,93.899 86.438,164.76c-19.543,70.861 -90.008,112.094 -157.257,92.02c-67.25,-20.073 -105.982,-93.899 -86.439,-164.76c19.544,-70.86 90.008,-112.093 157.258,-92.02Z" style="fill:#c8f7dc;"/></g><g><path d="M981.321,1373.26c11.657,-11.136 12.431,-30.022 1.727,-42.149l-38.788,-43.946c-10.704,-12.127 -28.858,-12.933 -40.515,-1.797l-109.074,104.192c-11.658,11.135 -12.432,30.022 -1.728,42.149l38.788,43.946c10.704,12.127 28.858,12.932 40.515,1.797l109.075,-104.192Z" style="fill:#ffefe3;"/><g><clipPath id="_clip5"><path d="M981.321,1373.26c11.657,-11.136 12.431,-30.022 1.727,-42.149l-38.788,-43.946c-10.704,-12.127 -28.858,-12.933 -40.515,-1.797l-109.074,104.192c-11.658,11.135 -12.432,30.022 -1.728,42.149l38.788,43.946c10.704,12.127 28.858,12.932 40.515,1.797l109.075,-104.192Z"/></clipPath><g clip-path="url(#_clip5)"><path d="M948.726,1473.91l-125.048,-141.677l-151.316,144.544l125.047,141.676l151.317,-144.543Z" style="fill:#564a3a;"/></g></g></g><g><path d="M999.623,1164.66c52.73,15.739 83.099,73.626 67.775,129.187c-15.323,55.561 -70.574,87.891 -123.304,72.152c-52.73,-15.739 -83.099,-73.626 -67.775,-129.187c15.323,-55.561 70.574,-87.892 123.304,-72.152Z" style="fill:#fff;fill-opacity:0.53;"/><path d="M1188.49,988.365c67.25,20.072 105.982,93.899 86.439,164.76c-19.544,70.861 -90.008,112.094 -157.258,92.02c-67.25,-20.073 -105.982,-93.899 -86.438,-164.76c19.542,-70.86 90.008,-112.093 157.257,-92.02Z" style="fill:#c8f7dc;"/><path d="M1007.77,1144.49c52.729,15.739 83.098,73.626 67.775,129.187c-15.324,55.561 -70.574,87.891 -123.304,72.152c-52.73,-15.739 -83.099,-73.626 -67.776,-129.187c15.324,-55.561 70.575,-87.892 123.305,-72.152Z" style="fill:#c8f7dc;"/></g><path d="M1191.76,721.045c-0,-34.452 -26.886,-62.422 -60.002,-62.422c-33.116,-0 -60.001,27.97 -60.001,62.422l-0,27.65c-0,34.451 26.885,62.421 60.001,62.421c33.116,-0 60.002,-27.97 60.002,-62.421l-0,-27.65Z" style="fill:#413628;"/><path d="M986.003,696.344c-0,-34.451 -26.886,-62.421 -60.002,-62.421c-33.116,0 -60.003,27.97 -60.003,62.421l0,27.65c0,34.451 26.887,62.421 60.003,62.421c33.116,0 60.002,-27.97 60.002,-62.421l-0,-27.65Z" style="fill:#413628;"/><path d="M986.003,858.863c10.412,-15.941 31.237,-15.941 41.65,-7.551c10.413,8.389 10.413,25.169 0,41.949c-7.289,12.584 -26.032,25.169 -41.65,33.558c-15.62,-8.389 -34.363,-20.974 -41.651,-33.558c-10.413,-16.78 -10.413,-33.56 -0,-41.949c10.412,-8.39 31.238,-8.39 41.651,7.551Z" style="fill:#413628;"/></g></g></svg>