<?xml version="1.0" encoding="UTF-8" standalone="no"?>
<!DOCTYPE svg PUBLIC "-//W3C//DTD SVG 1.1//EN" "http://www.w3.org/Graphics/SVG/1.1/DTD/svg11.dtd">
<svg width="100%" height="100%" viewBox="0 0 2481 2481" version="1.1" xmlns="http://www.w3.org/2000/svg" xmlns:xlink="http://www.w3.org/1999/xlink" xml:space="preserve" xmlns:serif="http://www.serif.com/" style="fill-rule:evenodd;clip-rule:evenodd;stroke-linejoin:round;stroke-miterlimit:2;">
  <g>
    <path d="M1367.17,2270.63c614.362,-0 1112.58,21.199 1111.87,47.31c-0.703,26.111 -500.058,47.31 -1114.42,47.31c-614.362,0 -1112.58,-21.199 -1111.87,-47.31c0.703,-26.111 500.057,-47.31 1114.42,-47.31Z" style="fill:#1f1c2e;" />
    <g>
      <path d="M871.781,2160.33c37.888,-22.775 50.158,-72.025 27.384,-109.913l-82.529,-137.297c-22.774,-37.888 -72.024,-50.158 -109.912,-27.384l-153.815,92.458c-37.888,22.774 -50.159,72.024 -27.384,109.912l82.528,137.297c22.774,37.888 72.025,50.159 109.913,27.384l153.815,-92.457Z" style="fill:#1f1c2e;" />
      <path d="M871.306,2021.79c37.982,-22.616 50.458,-71.815 27.842,-109.797l-81.956,-137.64c-22.616,-37.983 -71.814,-50.458 -109.797,-27.842l-154.199,91.815c-37.983,22.617 -50.459,71.815 -27.843,109.798l81.956,137.64c22.616,37.982 71.815,50.458 109.797,27.842l154.2,-91.816Z" style="fill:#1f1c2e;" />
      <path d="M1927,1853.88c-34.881,-27.157 -85.248,-20.886 -112.405,13.994l-98.411,126.399c-27.157,34.881 -20.886,85.248 13.994,112.405l141.607,110.251c34.88,27.157 85.247,20.886 112.404,-13.994l98.411,-126.399c27.157,-34.881 20.887,-85.248 -13.994,-112.405l-141.606,-110.251Z" style="fill:#1f1c2e;" />
      <path d="M2068.2,1749.27c-36.461,-24.996 -86.356,-15.689 -111.352,20.771l-90.582,132.122c-24.997,36.461 -15.69,86.356 20.771,111.352l178.95,122.686c36.46,24.997 86.355,15.69 111.352,-20.77l90.581,-132.123c24.997,-36.46 15.69,-86.355 -20.77,-111.352l-178.95,-122.686Z" style="fill:#1f1c2e;" />
      <ellipse cx="1365.89" cy="1287.54" rx="870.465" ry="881.523" style="fill:#1f1c2e;" />
      <ellipse cx="1010.81" cy="1847.66" rx="362.892" ry="367.503" style="fill:#1f1c2e;" />
      <ellipse cx="1010.81" cy="1847.66" rx="297.602" ry="291.627" style="fill:#f3f6fd;" />
      <ellipse cx="1736.59" cy="1801.56" rx="362.892" ry="367.503" style="fill:#1f1c2e;" />
      <ellipse cx="1736.59" cy="1801.56" rx="297.602" ry="291.627" style="fill:#f3f6fd;" />
      <ellipse cx="1994.93" cy="1354.83" rx="362.892" ry="367.503" style="fill:#1f1c2e;" />
      <ellipse cx="1994.93" cy="1354.83" rx="297.602" ry="291.627" style="fill:#f3f6fd;" />
      <clipPath id="_clip1">
        <ellipse cx="1994.93" cy="1354.83" rx="297.602" ry="291.627" />
      </clipPath>
      <g clip-path="url(#_clip1)">
        <ellipse cx="1883.92" cy="1504.24" rx="325.982" ry="330.123" style="fill:#1f1c2e;" />
      </g>
      <ellipse cx="1809.41" cy="852.594" rx="362.892" ry="367.503" style="fill:#1f1c2e;" />
      <ellipse cx="1809.41" cy="852.594" rx="297.602" ry="291.627" style="fill:#f3f6fd;" />
      <ellipse cx="1373.7" cy="1292.83" rx="703.918" ry="721.141" style="fill:#a4cbe8;" />
      <ellipse cx="1206.12" cy="1893.3" rx="263.6" ry="254.814" style="fill:#1f1c2e;" />
      <path d="M1553.12,504.907c429.413,97.785 697.643,530.232 598.615,965.1c-99.028,434.868 -528.054,708.536 -957.466,610.75c-429.413,-97.786 -697.643,-530.232 -598.615,-965.1c99.028,-434.868 528.054,-708.536 957.466,-610.75Z" style="fill:#f3f6fd;" />
      <clipPath id="_clip2">
        <path d="M1553.12,504.907c429.413,97.785 697.643,530.232 598.615,965.1c-99.028,434.868 -528.054,708.536 -957.466,610.75c-429.413,-97.786 -697.643,-530.232 -598.615,-965.1c99.028,-434.868 528.054,-708.536 957.466,-610.75Z" />
      </clipPath>
      <g clip-path="url(#_clip2)">
        <ellipse cx="1216.02" cy="1109.85" rx="754.373" ry="764.441" style="fill:#fefefe;" />
      </g>
      <g>
        <path d="M1261.63,371.295c218.866,115.182 306.16,380.464 194.817,592.035c-111.343,211.57 -379.431,289.825 -598.297,174.642c-218.866,-115.182 -306.161,-380.464 -194.818,-592.035c111.344,-211.57 379.432,-289.825 598.298,-174.642Z" style="fill:#1f1c2e;" />
        <path d="M793.666,326.582c128.745,67.754 180.095,223.803 114.599,348.256c-65.496,124.453 -223.195,170.485 -351.94,102.731c-128.744,-67.755 -180.094,-223.803 -114.598,-348.256c65.496,-124.454 223.195,-170.486 351.939,-102.731Z" style="fill:#1f1c2e;" />
        <path d="M1287.43,859.983c160.931,84.693 225.118,279.754 143.248,435.32c-81.87,155.567 -278.993,213.107 -439.924,128.414c-160.931,-84.693 -225.119,-279.754 -143.249,-435.32c81.871,-155.567 278.994,-213.107 439.925,-128.414Z" style="fill:#1f1c2e;" />
        <path d="M1095.61,1266.91c99.777,52.51 138.638,175.225 86.727,273.865c-51.912,98.64 -175.064,136.092 -274.841,83.582c-99.777,-52.509 -138.638,-175.224 -86.726,-273.864c51.911,-98.64 175.063,-136.092 274.84,-83.583Z" style="fill:#1f1c2e;" />
        <path d="M1058.66,1321.94c64.61,34.002 90.037,112.965 56.747,176.222c-33.29,63.257 -112.773,87.009 -177.383,53.006c-64.61,-34.002 -90.037,-112.964 -56.747,-176.222c33.291,-63.257 112.773,-87.008 177.383,-53.006Z" style="fill:#ffd5ac;" />
        <path d="M763.999,382.955c96.558,50.816 135.071,167.852 85.949,261.192c-49.122,93.34 -167.397,127.864 -263.955,77.048c-96.559,-50.816 -135.071,-167.852 -85.949,-261.192c49.122,-93.34 167.396,-127.864 263.955,-77.048Z" style="fill:#fefefe;" />
        <path d="M1257.76,916.357c128.745,67.754 180.095,223.802 114.599,348.256c-65.496,124.453 -223.195,170.485 -351.94,102.731c-128.744,-67.755 -180.094,-223.803 -114.598,-348.256c65.496,-124.454 223.195,-170.486 351.939,-102.731Z" style="fill:#f3f6fd;" />
        <path d="M1246.51,852.844c109.433,57.591 153.08,190.232 97.409,296.017c-55.672,105.785 -189.716,144.913 -299.149,87.321c-109.433,-57.591 -153.08,-190.232 -97.409,-296.017c55.672,-105.785 189.716,-144.913 299.149,-87.321Z" style="fill:#fefefe;" />
        <path d="M958.4,582.175c128.745,67.755 180.095,223.803 114.599,348.256c-65.496,124.454 -223.195,170.486 -351.94,102.731c-128.744,-67.754 -180.094,-223.802 -114.598,-348.256c65.496,-124.453 223.195,-170.485 351.939,-102.731Z" style="fill:#1f1c2e;" />
        <path d="M691.883,732.241c247.834,130.427 361.03,403.557 252.623,609.548c-108.407,205.992 -397.629,267.34 -645.463,136.913c-247.834,-130.427 -361.03,-403.557 -252.623,-609.549c108.407,-205.991 397.63,-267.34 645.463,-136.912Z" style="fill:#1f1c2e;" />
        <path d="M619.049,1012.14c48.279,25.408 70.331,78.615 49.212,118.743c-21.118,40.128 -77.46,52.079 -125.739,26.671c-48.279,-25.408 -70.331,-78.615 -49.212,-118.743c21.118,-40.128 77.46,-52.079 125.739,-26.671Z" style="fill:#fefefe;" />
        <path d="M597.81,1052.5c54.717,28.796 79.708,89.097 55.774,134.576c-23.934,45.479 -87.788,59.023 -142.505,30.227c-54.716,-28.795 -79.708,-89.097 -55.774,-134.575c23.934,-45.479 87.789,-59.023 142.505,-30.228Z" style="fill:#1f1c2e;" />
        <path d="M1231.96,427.668c186.68,98.244 261.137,324.514 166.168,504.971c-94.969,180.457 -323.633,247.204 -510.312,148.96c-186.68,-98.244 -261.138,-324.514 -166.168,-504.971c94.969,-180.457 323.632,-247.204 510.312,-148.96Z" style="fill:#f3f6fd;" />
        <path d="M1182.96,421.736c164.149,86.387 228.795,286.916 144.271,447.525c-84.523,160.609 -286.414,220.868 -450.564,134.481c-164.149,-86.387 -228.795,-286.916 -144.272,-447.525c84.524,-160.609 286.415,-220.868 450.565,-134.481Z" style="fill:#fefefe;" />
        <path d="M219.887,931.502c24.291,-14.159 50.665,-0.279 58.3,17.21c7.636,17.49 -3.468,38.589 -27.759,52.748c-17.559,10.966 -49.623,14.299 -74.956,14.438c-14.228,-20.959 -29.637,-49.275 -30.54,-69.957c-2.083,-28.039 9.021,-49.138 27.76,-52.748c18.739,-3.609 45.112,10.27 47.195,38.309Z" style="fill:#fefefe;" />
        <path d="M1261.63,371.295c218.866,115.182 306.16,380.464 194.817,592.035c-111.343,211.57 -379.431,289.825 -598.297,174.642c-218.866,-115.182 -306.161,-380.464 -194.818,-592.035c111.344,-211.57 379.432,-289.825 598.298,-174.642Z" style="fill:#1f1c2e;" />
        <path d="M793.666,326.582c128.745,67.754 180.095,223.803 114.599,348.256c-65.496,124.453 -223.195,170.485 -351.94,102.731c-128.744,-67.755 -180.094,-223.803 -114.598,-348.256c65.496,-124.454 223.195,-170.486 351.939,-102.731Z" style="fill:#1f1c2e;" />
        <path d="M1287.43,859.983c160.931,84.693 225.118,279.754 143.248,435.32c-81.87,155.567 -278.993,213.107 -439.924,128.414c-160.931,-84.693 -225.119,-279.754 -143.249,-435.32c81.871,-155.567 278.994,-213.107 439.925,-128.414Z" style="fill:#1f1c2e;" />
        <path d="M1095.61,1266.91c99.777,52.51 138.638,175.225 86.727,273.865c-51.912,98.64 -175.064,136.092 -274.841,83.582c-99.777,-52.509 -138.638,-175.224 -86.726,-273.864c51.911,-98.64 175.063,-136.092 274.84,-83.583Z" style="fill:#1f1c2e;" />
        <path d="M1058.66,1321.94c64.61,34.002 90.037,112.965 56.747,176.222c-33.29,63.257 -112.773,87.009 -177.383,53.006c-64.61,-34.002 -90.037,-112.964 -56.747,-176.222c33.291,-63.257 112.773,-87.008 177.383,-53.006Z" style="fill:#ffd5ac;" />
        <path d="M763.999,382.955c96.558,50.816 135.071,167.852 85.949,261.192c-49.122,93.34 -167.397,127.864 -263.955,77.048c-96.559,-50.816 -135.071,-167.852 -85.949,-261.192c49.122,-93.34 167.396,-127.864 263.955,-77.048Z" style="fill:#fefefe;" />
        <path d="M1257.76,916.357c128.745,67.754 180.095,223.802 114.599,348.256c-65.496,124.453 -223.195,170.485 -351.94,102.731c-128.744,-67.755 -180.094,-223.803 -114.598,-348.256c65.496,-124.454 223.195,-170.486 351.939,-102.731Z" style="fill:#f3f6fd;" />
        <path d="M1246.51,852.844c109.433,57.591 153.08,190.232 97.409,296.017c-55.672,105.785 -189.716,144.913 -299.149,87.321c-109.433,-57.591 -153.08,-190.232 -97.409,-296.017c55.672,-105.785 189.716,-144.913 299.149,-87.321Z" style="fill:#fefefe;" />
        <path d="M958.4,582.175c128.745,67.755 180.095,223.803 114.599,348.256c-65.496,124.454 -223.195,170.486 -351.94,102.731c-128.744,-67.754 -180.094,-223.802 -114.598,-348.256c65.496,-124.453 223.195,-170.485 351.939,-102.731Z" style="fill:#1f1c2e;" />
        <path d="M691.883,732.241c247.834,130.427 361.03,403.557 252.623,609.548c-108.407,205.992 -397.629,267.34 -645.463,136.913c-247.834,-130.427 -361.03,-403.557 -252.623,-609.549c108.407,-205.991 397.63,-267.34 645.463,-136.912Z" style="fill:#1f1c2e;" />
        <path d="M619.049,1012.14c48.279,25.408 70.331,78.615 49.212,118.743c-21.118,40.128 -77.46,52.079 -125.739,26.671c-48.279,-25.408 -70.331,-78.615 -49.212,-118.743c21.118,-40.128 77.46,-52.079 125.739,-26.671Z" style="fill:#fefefe;" />
        <path d="M597.81,1052.5c54.717,28.796 79.708,89.097 55.774,134.576c-23.934,45.479 -87.788,59.023 -142.505,30.227c-54.716,-28.795 -79.708,-89.097 -55.774,-134.575c23.934,-45.479 87.789,-59.023 142.505,-30.228Z" style="fill:#1f1c2e;" />
        <path d="M1231.96,427.668c186.68,98.244 261.137,324.514 166.168,504.971c-94.969,180.457 -323.633,247.204 -510.312,148.96c-186.68,-98.244 -261.138,-324.514 -166.168,-504.971c94.969,-180.457 323.632,-247.204 510.312,-148.96Z" style="fill:#f3f6fd;" />
        <path d="M1182.96,421.736c164.149,86.387 228.795,286.916 144.271,447.525c-84.523,160.609 -286.414,220.868 -450.564,134.481c-164.149,-86.387 -228.795,-286.916 -144.272,-447.525c84.524,-160.609 286.415,-220.868 450.565,-134.481Z" style="fill:#fefefe;" />
        <path d="M219.887,931.502c24.291,-14.159 50.665,-0.279 58.3,17.21c7.636,17.49 -3.468,38.589 -27.759,52.748c-17.559,10.966 -49.623,14.299 -74.956,14.438c-14.228,-20.959 -29.637,-49.275 -30.54,-69.957c-2.083,-28.039 9.021,-49.138 27.76,-52.748c18.739,-3.609 45.112,10.27 47.195,38.309Z" style="fill:#fefefe;" />
      </g>
      <ellipse cx="1809.41" cy="814.357" rx="258.582" ry="253.39" style="fill:#fefefe;" />
    </g>
  </g>
</svg>