<?xml version="1.0" encoding="UTF-8" standalone="no"?>
<!DOCTYPE svg PUBLIC "-//W3C//DTD SVG 1.1//EN" "http://www.w3.org/Graphics/SVG/1.1/DTD/svg11.dtd">
<svg width="100%" height="100%" viewBox="0 0 2481 2481" version="1.1" xmlns="http://www.w3.org/2000/svg" xmlns:xlink="http://www.w3.org/1999/xlink" xml:space="preserve" xmlns:serif="http://www.serif.com/" style="fill-rule:evenodd;clip-rule:evenodd;stroke-linejoin:round;stroke-miterlimit:2;">
  <g>
    <g>
      <path d="M1470.05,2111.59c557.583,0 1009.75,19.24 1009.11,42.938c-0.639,23.698 -453.843,42.938 -1011.43,42.938c-557.583,-0 -1009.75,-19.24 -1009.11,-42.938c0.638,-23.698 453.843,-42.938 1011.43,-42.938Z" style="fill:#1f1c2e;" />
      <g>
        <ellipse cx="1468.89" cy="1364.35" rx="790.017" ry="800.054" style="fill:#1f1c2e;" />
        <ellipse cx="1157.37" cy="1863.93" rx="329.354" ry="333.539" style="fill:#1f1c2e;" />
        <ellipse cx="1157.37" cy="1863.93" rx="270.098" ry="264.675" style="fill:#f3f6fd;" />
        <ellipse cx="1805.32" cy="1830.87" rx="329.354" ry="333.539" style="fill:#1f1c2e;" />
        <ellipse cx="1805.32" cy="1830.87" rx="270.098" ry="264.675" style="fill:#f3f6fd;" />
        <ellipse cx="2039.79" cy="1425.43" rx="329.354" ry="333.539" style="fill:#1f1c2e;" />
        <ellipse cx="2039.79" cy="1425.43" rx="270.098" ry="264.675" style="fill:#f3f6fd;" />
        <clipPath id="_clip1">
          <ellipse cx="2039.79" cy="1425.43" rx="270.098" ry="264.675" />
        </clipPath>
        <g clip-path="url(#_clip1)">
          <ellipse cx="1939.04" cy="1561.03" rx="295.855" ry="299.613" style="fill:#1f1c2e;" />
        </g>
        <ellipse cx="1871.41" cy="969.608" rx="329.354" ry="333.539" style="fill:#1f1c2e;" />
        <ellipse cx="1871.41" cy="969.608" rx="270.098" ry="264.675" style="fill:#f3f6fd;" />
        <ellipse cx="1475.97" cy="1369.16" rx="638.863" ry="654.494" style="fill:#a4cbe8;" />
        <ellipse cx="1323.88" cy="1914.13" rx="239.239" ry="231.264" style="fill:#1f1c2e;" />
        <path d="M1638.81,654.054c389.727,88.748 633.168,481.229 543.292,875.906c-89.876,394.678 -479.252,643.054 -868.979,554.306c-389.726,-88.748 -633.167,-481.229 -543.291,-875.907c89.876,-394.678 479.252,-643.054 868.978,-554.305Z" style="fill:#f3f6fd;" />
        <clipPath id="_clip2">
          <path d="M1638.81,654.054c389.727,88.748 633.168,481.229 543.292,875.906c-89.876,394.678 -479.252,643.054 -868.979,554.306c-389.726,-88.748 -633.167,-481.229 -543.291,-875.907c89.876,-394.678 479.252,-643.054 868.978,-554.305Z" />
        </clipPath>
        <g clip-path="url(#_clip2)">
          <ellipse cx="1332.87" cy="1203.09" rx="684.655" ry="693.792" style="fill:#fefefe;" />
        </g>
        <g>
          <ellipse cx="1071.51" cy="847.812" rx="406.706" ry="393.149" style="fill:#1f1c2e;" />
          <ellipse cx="676.765" cy="847.812" rx="239.239" ry="231.264" style="fill:#1f1c2e;" />
          <ellipse cx="1298.79" cy="1125.33" rx="299.048" ry="289.08" style="fill:#1f1c2e;" />
          <ellipse cx="1316.73" cy="1427.45" rx="185.41" ry="183.297" style="fill:#1f1c2e;" />
          <ellipse cx="1310.31" cy="1421.51" rx="120.061" ry="117.547" style="fill:#ffd5ac;" />
          <ellipse cx="676.765" cy="847.812" rx="179.429" ry="173.448" style="fill:#fefefe;" />
          <ellipse cx="1298.79" cy="1125.33" rx="239.239" ry="231.264" style="fill:#f3f6fd;" />
          <ellipse cx="1262.9" cy="1044.39" rx="203.353" ry="196.574" style="fill:#fefefe;" />
          <ellipse cx="917.104" cy="983.463" rx="239.239" ry="231.264" style="fill:#1f1c2e;" />
          <ellipse cx="766.48" cy="1368.16" rx="460.534" ry="382.782" style="fill:#1f1c2e;" />
          <ellipse cx="817.586" cy="1293.3" rx="89.714" ry="74.568" style="fill:#fefefe;" />
          <ellipse cx="817.586" cy="1241.97" rx="101.676" ry="84.51" style="fill:#1f1c2e;" />
          <ellipse cx="1071.51" cy="847.812" rx="346.896" ry="335.333" style="fill:#f3f6fd;" />
          <ellipse cx="1029.64" cy="826.879" rx="305.029" ry="298.45" style="fill:#fefefe;" />
          <path d="M471.619,1344.91c13.524,-21.639 40.573,-21.639 54.097,-10.819c13.525,10.819 13.525,32.458 0,54.097c-9.467,16.23 -33.811,32.459 -54.097,43.278c-20.287,-10.819 -44.63,-27.048 -54.098,-43.278c-13.524,-21.639 -13.524,-43.278 0,-54.097c13.525,-10.82 40.574,-10.82 54.098,10.819Z" style="fill:#fefefe;" />
        </g>
        <ellipse cx="1871.41" cy="934.905" rx="234.684" ry="229.972" style="fill:#fefefe;" />
      </g>
    </g>
    <g>
      <path d="M320.927,1001.33c5.592,-4.908 11.506,-6.99 17.744,-6.246c6.238,0.744 11.496,3.553 15.775,8.428c4.279,4.875 6.383,10.453 6.312,16.734c-0.071,6.282 -2.902,11.877 -8.494,16.785l-65.38,57.388c-6.022,5.286 -12.016,8.073 -17.983,8.36c-5.967,0.288 -11.342,-2.293 -16.124,-7.741c-4.657,-5.305 -6.678,-12.669 -6.065,-22.092l-5.034,-103.339l-37.636,33.036c-5.592,4.908 -11.507,6.99 -17.744,6.246c-6.238,-0.744 -11.496,-3.553 -15.775,-8.428c-4.279,-4.875 -6.383,-10.453 -6.312,-16.734c0.071,-6.282 2.902,-11.877 8.494,-16.785l69.896,-61.352c4.875,-4.279 10.117,-6.405 15.725,-6.378c5.608,0.027 10.615,2.55 15.02,7.568c3.146,3.584 5.406,8.328 6.779,14.23l7.682,109.392l33.12,-29.072Z" style="fill:#1f1c2e;fill-rule:nonzero;" />
      <path d="M176.716,831.924c10.187,3.437 17.075,9.325 20.663,17.664c3.588,8.338 3.884,16.948 0.887,25.83c-2.996,8.881 -8.447,15.553 -16.353,20.014c-7.906,4.461 -16.952,4.973 -27.14,1.536l-119.116,-40.184c-10.972,-3.701 -18.798,-9.178 -23.48,-16.431c-4.681,-7.253 -5.347,-15.842 -1.999,-25.769c3.261,-9.665 11.005,-17.526 23.232,-23.585l125.57,-81.146l-68.571,-23.133c-10.187,-3.436 -17.075,-9.324 -20.663,-17.663c-3.588,-8.338 -3.883,-16.948 -0.887,-25.83c2.996,-8.881 8.447,-15.553 16.353,-20.014c7.906,-4.461 16.952,-4.973 27.14,-1.537l127.345,42.96c8.881,2.997 15.336,8.011 19.365,15.044c4.028,7.032 4.5,15.12 1.416,24.262c-2.203,6.531 -6.497,12.792 -12.883,18.785l-131.221,88.841l60.342,20.356Z" style="fill:#1f1c2e;fill-rule:nonzero;" />
      <path d="M358.742,543.311c9.904,9.421 14.69,19.899 14.359,31.435c-0.331,11.536 -4.604,21.621 -12.817,30.255c-8.213,8.635 -18.072,13.405 -29.577,14.313c-11.505,0.907 -22.209,-3.35 -32.113,-12.771l-115.799,-110.151c-10.666,-10.146 -16.754,-20.653 -18.266,-31.524c-1.511,-10.87 2.323,-21.13 11.502,-30.78c8.938,-9.396 22.078,-14.31 39.421,-14.744l188.249,-26.273l-66.661,-63.41c-9.904,-9.421 -14.69,-19.899 -14.358,-31.435c0.331,-11.536 4.603,-21.621 12.816,-30.255c8.213,-8.634 18.072,-13.405 29.577,-14.312c11.505,-0.908 22.21,3.349 32.114,12.77l123.798,117.76c8.634,8.213 13.39,17.453 14.266,27.719c0.876,10.267 -2.913,19.844 -11.367,28.732c-6.039,6.349 -14.345,11.266 -24.918,14.753l-198.887,32.118l58.661,55.8Z" style="fill:#1f1c2e;fill-rule:nonzero;" />
    </g>
  </g>
</svg>