<svg viewBox="0 0 2481 2481" xmlns="http://www.w3.org/2000/svg" fill-rule="evenodd" clip-rule="evenodd" stroke-linejoin="round" stroke-miterlimit="2"><path d="M1257.41 1907.14c609.351 10.28 1102 140.945 1099.46 291.607-2.542 150.662-499.322 264.635-1108.67 254.354-609.351-10.28-1102-140.945-1099.46-291.607 2.542-150.662 499.321-264.635 1108.67-254.354z" fill="#eee"/><path d="M668.875 2193.59c19.461.463 36.258-15.031 37.488-34.578l4.455-70.833c1.23-19.547-13.572-35.793-33.032-36.256l-182.088-4.33c-19.46-.463-36.258 15.031-37.487 34.578l-4.455 70.834c-1.23 19.547 13.571 35.792 33.032 36.255l182.087 4.33z" fill="#ffefe3"/><clipPath id="prefix__a"><path d="M668.794 2194.87c19.46.463 36.258-15.031 37.487-34.578l4.456-70.833c1.229-19.547-13.572-35.793-33.032-36.255l-182.088-4.331c-19.46-.462-36.258 15.031-37.487 34.578l-4.456 70.834c-1.229 19.547 13.572 35.792 33.033 36.255l182.087 4.33z"/></clipPath><g clip-path="url(#prefix__a)"><path d="M554.983 2253.05l14.364-228.358-252.607-6.007-14.364 228.358 252.607 6.007z" fill="#564a3a"/></g><path d="M1666.91 1914.01c-19.414.186-34.419 16.262-33.489 35.876l3.373 71.079c.931 19.615 17.448 35.388 36.862 35.202l181.648-1.739c19.414-.186 34.419-16.261 33.488-35.876l-3.373-71.079c-.93-19.614-17.447-35.388-36.861-35.202l-181.648 1.739z" fill="#ffefe3"/><clipPath id="prefix__b"><path d="M1666.91 1914.01c-19.414.186-34.419 16.262-33.489 35.876l3.373 71.079c.931 19.615 17.448 35.388 36.862 35.202l181.648-1.739c19.414-.186 34.419-16.261 33.488-35.876l-3.373-71.079c-.93-19.614-17.447-35.388-36.861-35.202l-181.648 1.739z"/></clipPath><g clip-path="url(#prefix__b)"><path d="M1773.74 1851.96l10.874 229.148 251.998-2.413-10.874-229.148-251.998 2.413z" fill="#564a3a"/></g><path d="M1649.33 1278.36c0-301.067-234.955-545.496-524.354-545.496H954.257c-289.399 0-524.354 244.429-524.354 545.496v278.609c0 301.067 234.955 545.495 524.354 545.495h170.719c289.399 0 524.354-244.428 524.354-545.495V1278.36z" fill="#ffefe3"/><path d="M401.418 780.567c5.93-2.45 11.336-2.503 16.22-.16 4.883 2.343 8.393 6.099 10.529 11.268 2.135 5.169 2.3 10.307.495 15.413-1.806 5.107-5.674 8.885-11.603 11.335l-69.326 28.643c-6.385 2.638-12.053 3.244-17.003 1.819-4.949-1.426-8.617-5.027-11.004-10.804-2.324-5.626-1.925-12.198 1.197-19.718l24.646-85.736-39.908 16.488c-5.929 2.45-11.335 2.503-16.219.161-4.884-2.343-8.393-6.099-10.529-11.268-2.136-5.169-2.301-10.307-.495-15.414 1.806-5.107 5.673-8.885 11.603-11.335l74.115-30.621c5.169-2.136 10.038-2.412 14.608-.83 4.569 1.583 7.953 5.035 10.152 10.356 1.57 3.801 2.094 8.301 1.573 13.5l-24.17 91.413 35.119-14.51zM263.356 567.427c9.586 1.022 16.761 4.832 21.526 11.431 4.765 6.598 6.702 14.076 5.811 22.433-.892 8.356-4.362 15.257-10.412 20.702-6.049 5.445-13.867 7.656-23.453 6.634l-112.077-11.954c-10.323-1.101-18.24-4.369-23.751-9.804-5.51-5.435-7.767-12.823-6.771-22.163.97-9.094 6.215-17.483 15.735-25.168l94.081-95.488-64.519-6.882c-9.586-1.022-16.761-4.832-21.526-11.431-4.765-6.598-6.702-14.076-5.81-22.433.891-8.356 4.361-15.257 10.411-20.702 6.049-5.445 13.867-7.657 23.453-6.634l119.82 12.78c8.356.891 14.983 4.022 19.879 9.391 4.896 5.37 6.885 12.356 5.968 20.958-.656 6.145-3.194 12.461-7.615 18.95L206.58 561.371l56.776 6.056zM403.431 270.291c11.115 5.143 18.193 12.655 21.232 22.538 3.04 9.884 2.318 19.67-2.164 29.36-4.483 9.691-11.475 16.576-20.975 20.658-9.501 4.082-19.808 3.552-30.923-1.59L240.64 281.133c-11.97-5.537-20.161-12.7-24.573-21.488-4.411-8.788-4.112-18.597.898-29.427 4.879-10.545 14.613-18.498 29.203-23.858l152.158-76.484-74.813-34.611c-11.115-5.142-18.192-12.654-21.232-22.538-3.04-9.883-2.318-19.67 2.165-29.36 4.483-9.69 11.474-16.576 20.975-20.658 9.5-4.081 19.808-3.551 30.923 1.591l138.938 64.277c9.69 4.483 16.385 10.953 20.084 19.411 3.699 8.459 3.241 17.675-1.374 27.65-3.296 7.125-8.928 13.689-16.894 19.691l-159.502 84.505 65.835 30.457z" fill="#413628" fill-rule="nonzero"/><path d="M518.923 1006.41c0-51.53-40.215-93.365-89.747-93.365h-96.665c-49.532 0-89.746 41.835-89.746 93.365v30.398c0 51.53 40.214 93.365 89.746 93.365h96.665c49.532 0 89.747-41.835 89.747-93.365v-30.398z" fill="#ffefe3"/><clipPath id="prefix__c"><path d="M518.923 1006.41c0-51.53-40.215-93.365-89.747-93.365h-96.665c-49.532 0-89.746 41.835-89.746 93.365v30.398c0 51.53 40.214 93.365 89.746 93.365h96.665c49.532 0 89.747-41.835 89.747-93.365v-30.398z"/></clipPath><g clip-path="url(#prefix__c)"><path d="M496.339 1025.5c0-37.308-29.115-67.598-64.977-67.598h-69.987c-35.862 0-64.977 30.29-64.977 67.598v22.009c0 37.308 29.115 67.597 64.977 67.597h69.987c35.862 0 64.977-30.289 64.977-67.597V1025.5z" fill="#d2b289"/></g><g fill="#d5deff"><ellipse cx="385.694" cy="1212.01" rx="153.279" ry="161.51"/><ellipse cx="704.473" cy="977.279" rx="153.279" ry="161.51"/><ellipse cx="944.593" cy="957.897" rx="153.279" ry="161.51"/><path d="M1122.52 802.848c0-22.581-17.623-40.915-39.33-40.915H774.76c-21.706 0-39.329 18.334-39.329 40.915v81.832c0 22.582 17.623 40.915 39.329 40.915h308.43c21.707 0 39.33-18.333 39.33-40.915v-81.832zM1971.21 930.441c0-72.798-56.811-131.9-126.787-131.9h-253.574c-69.976 0-126.788 59.102-126.788 131.9v974.44c0 72.798 56.812 131.9 126.788 131.9h253.574c69.976 0 126.787-59.102 126.787-131.9v-974.44z"/><path d="M1761.1 1831.67c0-41.302-32.232-74.833-71.932-74.833H639.678c-39.701 0-71.933 33.531-71.933 74.833v149.665c0 41.302 32.232 74.833 71.933 74.833h1049.49c39.7 0 71.932-33.531 71.932-74.833V1831.67z"/><path d="M1641.05 2074.15c0-25.612-19.988-46.405-44.606-46.405h-650.81c-24.62 0-44.608 20.793-44.608 46.405v92.811c0 25.611 19.988 46.405 44.608 46.405h650.81c24.618 0 44.606-20.794 44.606-46.405v-92.811z"/><ellipse cx="1149.53" cy="947.13" rx="153.279" ry="161.51"/><ellipse cx="1348.24" cy="968.665" rx="153.279" ry="161.51"/><ellipse cx="1348.24" cy="968.665" rx="153.279" ry="161.51"/><ellipse cx="1482.79" cy="1451.04" rx="153.279" ry="161.51"/><ellipse cx="1377.02" cy="1711.61" rx="153.279" ry="161.51"/><ellipse cx="1187.2" cy="1776.21" rx="120.58" ry="127.054"/><ellipse cx="964.678" cy="1836.51" rx="148.525" ry="155.049"/><ellipse cx="714.209" cy="1821.44" rx="148.525" ry="155.049"/><ellipse cx="546.539" cy="1705.15" rx="148.525" ry="155.049"/><ellipse cx="497.031" cy="1471.5" rx="99.016" ry="103.366"/><ellipse cx="481.849" cy="1277.69" rx="114.198" ry="117.364"/><ellipse cx="496.339" cy="1096.8" rx="125.235" ry="128.131"/><ellipse cx="570.25" cy="901.908" rx="112.404" ry="118.44"/><ellipse cx="711.209" cy="783.468" rx="112.404" ry="118.44"/><ellipse cx="886.554" cy="710.25" rx="159.41" ry="167.97"/><ellipse cx="1165.99" cy="680.101" rx="194.579" ry="198.119"/><ellipse cx="1464.06" cy="710.25" rx="194.579" ry="198.119"/><ellipse cx="1730.48" cy="751.166" rx="129.803" ry="139.975"/><ellipse cx="1867.41" cy="932.056" rx="136.923" ry="139.975"/><ellipse cx="1981.26" cy="1091.41" rx="96.986" ry="105.519"/><ellipse cx="2017.45" cy="1323.99" rx="184.927" ry="183.044"/><ellipse cx="2047.1" cy="1548.97" rx="135.922" ry="134.539"/><ellipse cx="2047.1" cy="1548.97" rx="135.922" ry="134.539"/><ellipse cx="2047.1" cy="1740.69" rx="120.757" ry="119.528"/><ellipse cx="1967.77" cy="1928.04" rx="120.757" ry="119.528"/><ellipse cx="1724" cy="2092.16" rx="172.506" ry="170.751"/><ellipse cx="1339.65" cy="2168.29" rx="163.318" ry="161.656"/><ellipse cx="1083.4" cy="2202.13" rx="107.851" ry="92.128"/><ellipse cx="839.958" cy="2126.16" rx="166.634" ry="156.133"/><ellipse cx="589.489" cy="2055.06" rx="104.535" ry="106.575"/><ellipse cx="476.058" cy="1900.04" rx="122.747" ry="123.824"/><ellipse cx="406.912" cy="1684.69" rx="122.747" ry="123.824"/><ellipse cx="388.282" cy="1490.88" rx="122.747" ry="123.824"/><ellipse cx="1567.35" cy="2183.83" rx="111.568" ry="110.433"/></g><path d="M1692.61 1051.26c0-51.53-40.214-93.366-89.747-93.366h-96.665c-49.532 0-89.746 41.836-89.746 93.366v30.398c0 51.53 40.214 93.365 89.746 93.365h96.665c49.533 0 89.747-41.835 89.747-93.365v-30.398z" fill="#ffefe3"/><path d="M1641.23 1085.42c0-37.308-29.116-67.597-64.978-67.597h-69.986c-35.862 0-64.977 30.289-64.977 67.597v22.009c0 37.308 29.115 67.597 64.977 67.597h69.986c35.862 0 64.978-30.289 64.978-67.597v-22.009z" fill="#d2b289"/><ellipse cx="1431.04" cy="1205.55" rx="153.279" ry="161.51" fill="#d5deff"/><path d="M1886.84 2035.28c-19.39.002-34.541 15.954-33.811 35.601l2.646 71.193c.73 19.647 17.065 35.596 36.456 35.594l181.436-.019c19.391-.002 34.541-15.954 33.811-35.6l-2.645-71.194c-.73-19.647-17.066-35.595-36.456-35.593l-181.437.018z" fill="#ffefe3"/><clipPath id="prefix__d"><path d="M1884.88 2037.93c-19.383.546-34.079 16.917-32.798 36.535l4.642 71.092c1.281 19.618 18.058 35.102 37.441 34.556l181.364-5.111c19.383-.547 34.08-16.918 32.799-36.536l-4.643-71.091c-1.281-19.618-18.057-35.102-37.441-34.556l-181.364 5.111z"/></clipPath><g clip-path="url(#prefix__d)"><path d="M1990.44 1973.82l14.966 229.19 251.604-7.09-14.967-229.19-251.603 7.09z" fill="#564a3a"/></g><ellipse cx="1852" cy="2069.53" rx="120.757" ry="119.528" fill="#d5deff"/><g><path d="M1750.82 1407.58c81.316 24.272 128.148 113.541 104.518 199.224-23.631 85.682-108.835 135.54-190.152 111.268-81.316-24.272-128.149-113.541-104.518-199.224 23.631-85.682 108.835-135.54 190.152-111.268z" fill="#fff" fill-opacity=".53"/><path d="M1564.91 1648.54c81.316 24.272 128.15 113.541 104.518 199.223-23.631 85.683-108.835 135.54-190.151 111.268-81.315-24.272-128.149-113.54-104.517-199.222 23.63-85.684 108.834-135.541 190.15-111.269z" fill="#fff" fill-opacity=".53"/><g fill="#d5deff"><path d="M1715.26 1392.88c81.316 24.272 128.149 113.541 104.518 199.224-23.631 85.682-108.835 135.54-190.151 111.268-81.317-24.272-128.149-113.541-104.519-199.224 23.632-85.682 108.836-135.54 190.152-111.268z"/><path d="M1544.52 1613c81.317 24.271 128.15 113.54 104.519 199.222-23.632 85.683-108.835 135.54-190.151 111.268-81.316-24.271-128.15-113.54-104.518-199.222 23.631-85.683 108.834-135.54 190.15-111.268z"/></g></g><g><path d="M1006.02 2303.74c19.489-.413 35.6-16.624 35.957-36.18l1.29-70.864c.356-19.555-15.177-35.097-34.666-34.684l-182.351 3.861c-19.489.412-35.6 16.624-35.957 36.179l-1.29 70.864c-.356 19.555 15.177 35.097 34.666 34.684l182.351-3.86z" fill="#ffefe3"/><clipPath id="prefix__e"><path d="M1006.02 2303.74c19.489-.413 35.6-16.624 35.957-36.18l1.29-70.864c.356-19.555-15.177-35.097-34.666-34.684l-182.351 3.861c-19.489.412-35.6 16.624-35.957 36.179l-1.29 70.864c-.356 19.555 15.177 35.097 34.666 34.684l182.351-3.86z"/></clipPath><g clip-path="url(#prefix__e)"><path d="M894.769 2366.89l4.16-228.456-252.974 5.356-4.16 228.456 252.974-5.356z" fill="#564a3a"/></g></g><g><path d="M905.381 1826.17c63.759 19.032 100.48 89.027 81.951 156.21-18.529 67.182-85.336 106.275-149.095 87.243-63.76-19.031-100.481-89.026-81.952-156.208 18.529-67.183 85.336-106.276 149.096-87.245z" fill="#fff" fill-opacity=".53"/><g fill="#d5deff"><path d="M1133.75 1613c81.316 24.271 128.149 113.54 104.518 199.222-23.631 85.683-108.835 135.54-190.151 111.268-81.316-24.271-128.149-113.54-104.518-199.222 23.63-85.683 108.834-135.54 190.151-111.268z"/><path d="M915.227 1801.78c63.759 19.031 100.48 89.026 81.952 156.209-18.529 67.182-85.336 106.275-149.096 87.244-63.758-19.032-100.48-89.027-81.951-156.209 18.529-67.183 85.337-106.276 149.095-87.244z"/></g></g><path d="M1137.7 1289.76c0-41.657-32.51-75.478-72.553-75.478-40.042 0-72.552 33.821-72.552 75.478v33.434c0 41.657 32.51 75.477 72.552 75.477 40.043 0 72.553-33.82 72.553-75.477v-33.434zM894.762 1259.89c0-41.657-33.821-75.477-75.478-75.477s-75.478 33.82-75.478 75.477v33.434c0 41.657 33.821 75.477 75.478 75.477s75.478-33.82 75.478-75.477v-33.434z" fill="#413628"/><path d="M896.652 1238.41c0-38.361-34.584-69.506-77.182-69.506s-77.183 31.145-77.183 69.506v30.789c0 38.361 34.585 69.506 77.183 69.506 42.598 0 77.182-31.145 77.182-69.506v-30.789zM1140.23 1266.6c0-39.006-33.82-70.674-75.478-70.674-41.657 0-75.478 31.668-75.478 70.674v31.305c0 39.006 33.821 70.674 75.478 70.674 41.658 0 75.478-31.668 75.478-70.674V1266.6z" fill="#ffefe3"/><path d="M888.911 1456.4c12.59-19.275 37.772-19.275 50.363-9.13 12.59 10.144 12.59 30.434 0 50.723-8.814 15.217-31.477 30.434-50.363 40.578-18.887-10.144-41.55-25.361-50.363-40.578-12.59-20.289-12.59-40.579 0-50.723 12.59-10.145 37.772-10.145 50.363 9.13z" fill="#413628"/><ellipse cx="1059.28" cy="2098.76" rx="107.851" ry="92.128" fill="#d5deff"/></svg>