<?xml version="1.0" encoding="UTF-8" standalone="no"?>
<!DOCTYPE svg PUBLIC "-//W3C//DTD SVG 1.1//EN" "http://www.w3.org/Graphics/SVG/1.1/DTD/svg11.dtd">
<svg width="100%" height="100%" viewBox="0 0 2481 2481" version="1.1" xmlns="http://www.w3.org/2000/svg" xmlns:xlink="http://www.w3.org/1999/xlink" xml:space="preserve" xmlns:serif="http://www.serif.com/" style="fill-rule:evenodd;clip-rule:evenodd;stroke-linejoin:round;stroke-miterlimit:2;">
  <g>
    <path d="M1430.65,2276.02c579.326,-0 1049.13,19.99 1048.46,44.612c-0.664,24.622 -471.541,44.612 -1050.87,44.612c-579.326,0 -1049.13,-19.99 -1048.46,-44.612c0.663,-24.622 471.541,-44.612 1050.87,-44.612Z" style="fill:#1f1c2e;" />
    <g>
      <path d="M902.754,2146.91c35.727,-21.475 47.298,-67.917 25.822,-103.644l-77.822,-129.468c-21.476,-35.727 -67.917,-47.298 -103.645,-25.822l-145.043,87.185c-35.727,21.476 -47.298,67.917 -25.822,103.645l77.822,129.467c21.475,35.727 67.917,47.298 103.644,25.822l145.044,-87.185Z" style="fill:#1f1c2e;" />
      <path d="M1429.84,2075.88c-0,-41.685 -33.843,-75.528 -75.529,-75.528l-151.056,-0c-41.685,-0 -75.528,33.843 -75.528,75.528l-0,169.23c-0,41.685 33.843,75.528 75.528,75.528l151.056,0c41.686,0 75.529,-33.843 75.529,-75.528l-0,-169.23Z" style="fill:#1f1c2e;" />
      <path d="M1750.26,2046.01c0,-41.685 -33.843,-75.528 -75.528,-75.528l-151.056,-0c-41.685,-0 -75.529,33.843 -75.529,75.528l0,169.23c0,41.685 33.844,75.528 75.529,75.528l151.056,-0c41.685,-0 75.528,-33.843 75.528,-75.528l0,-169.23Z" style="fill:#1f1c2e;" />
      <path d="M2086.33,2010.64c0,-41.685 -33.843,-75.528 -75.528,-75.528l-151.056,0c-41.685,0 -75.529,33.843 -75.529,75.528l0,204.595c0,41.685 33.844,75.528 75.529,75.528l151.056,-0c41.685,-0 75.528,-33.843 75.528,-75.528l0,-204.595Z" style="fill:#1f1c2e;" />
      <ellipse cx="1429.45" cy="1348.99" rx="820.824" ry="831.252" style="fill:#1f1c2e;" />
      <ellipse cx="1094.61" cy="1877.18" rx="342.198" ry="346.545" style="fill:#1f1c2e;" />
      <ellipse cx="1094.61" cy="1877.18" rx="280.63" ry="274.996" style="fill:#f3f6fd;" />
      <ellipse cx="1779" cy="1833.7" rx="342.198" ry="346.545" style="fill:#1f1c2e;" />
      <ellipse cx="1779" cy="1833.7" rx="280.63" ry="274.996" style="fill:#f3f6fd;" />
      <ellipse cx="2022.61" cy="1412.45" rx="342.198" ry="346.545" style="fill:#1f1c2e;" />
      <ellipse cx="2022.61" cy="1412.45" rx="280.63" ry="274.996" style="fill:#f3f6fd;" />
      <clipPath id="_clip1">
        <ellipse cx="2022.61" cy="1412.45" rx="280.63" ry="274.996" />
      </clipPath>
      <g clip-path="url(#_clip1)">
        <ellipse cx="1917.93" cy="1553.34" rx="307.392" ry="311.297" style="fill:#1f1c2e;" />
      </g>
      <ellipse cx="1847.67" cy="938.857" rx="342.198" ry="346.545" style="fill:#1f1c2e;" />
      <ellipse cx="1847.67" cy="938.857" rx="280.63" ry="274.996" style="fill:#f3f6fd;" />
      <ellipse cx="1436.81" cy="1353.99" rx="663.776" ry="680.017" style="fill:#a4cbe8;" />
      <ellipse cx="1278.78" cy="1920.21" rx="248.568" ry="240.282" style="fill:#1f1c2e;" />
      <path d="M1606,610.997c404.924,92.209 657.858,499.995 564.477,910.063c-93.381,410.068 -497.941,668.13 -902.865,575.921c-404.924,-92.209 -657.858,-499.995 -564.477,-910.063c93.381,-410.069 497.941,-668.13 902.865,-575.921Z" style="fill:#f3f6fd;" />
      <clipPath id="_clip2">
        <path d="M1606,610.997c404.924,92.209 657.858,499.995 564.477,910.063c-93.381,410.068 -497.941,668.13 -902.865,575.921c-404.924,-92.209 -657.858,-499.995 -564.477,-910.063c93.381,-410.069 497.941,-668.13 902.865,-575.921Z" />
      </clipPath>
      <g clip-path="url(#_clip2)">
        <ellipse cx="1288.12" cy="1181.44" rx="711.354" ry="720.847" style="fill:#fefefe;" />
      </g>
      <g>
        <path d="M1331.13,485.005c206.385,108.614 288.701,358.767 183.708,558.273c-104.994,199.505 -357.794,273.297 -564.178,164.683c-206.385,-108.615 -288.701,-358.768 -183.708,-558.273c104.994,-199.506 357.793,-273.298 564.178,-164.683Z" style="fill:#1f1c2e;" />
        <path d="M889.851,442.842c121.403,63.89 169.825,211.039 108.064,328.395c-61.761,117.356 -210.467,160.763 -331.87,96.873c-121.402,-63.891 -169.824,-211.04 -108.063,-328.396c61.761,-117.356 210.467,-160.763 331.869,-96.872Z" style="fill:#1f1c2e;" />
        <path d="M1355.46,945.825c151.754,79.863 212.28,263.799 135.079,410.494c-77.201,146.695 -263.083,200.954 -414.836,121.091c-151.754,-79.863 -212.281,-263.8 -135.08,-410.495c77.202,-146.695 263.084,-200.954 414.837,-121.09Z" style="fill:#1f1c2e;" />
        <path d="M1174.58,1329.55c94.087,49.516 130.732,165.232 81.781,258.247c-48.951,93.015 -165.08,128.331 -259.167,78.816c-94.087,-49.515 -130.732,-165.232 -81.781,-258.247c48.951,-93.015 165.08,-128.331 259.167,-78.816Z" style="fill:#1f1c2e;" />
        <path d="M1139.73,1381.43c60.926,32.063 84.903,106.523 53.511,166.173c-31.392,59.65 -106.342,82.047 -167.267,49.983c-60.926,-32.063 -84.903,-106.522 -53.511,-166.172c31.392,-59.65 106.342,-82.047 167.267,-49.984Z" style="fill:#ffd5ac;" />
        <path d="M861.876,496c91.052,47.918 127.368,158.28 81.047,246.297c-46.32,88.017 -157.85,120.572 -248.902,72.654c-91.052,-47.918 -127.368,-158.28 -81.047,-246.297c46.32,-88.017 157.85,-120.572 248.902,-72.654Z" style="fill:#fefefe;" />
        <path d="M1327.48,998.983c121.403,63.891 169.825,211.04 108.064,328.396c-61.761,117.356 -210.467,160.763 -331.87,96.872c-121.402,-63.89 -169.824,-211.04 -108.063,-328.396c61.761,-117.356 210.467,-160.763 331.869,-96.872Z" style="fill:#f3f6fd;" />
        <path d="M1316.87,939.092c103.192,54.307 144.351,179.384 91.854,279.136c-52.497,99.753 -178.897,136.649 -282.089,82.342c-103.192,-54.307 -144.351,-179.384 -91.854,-279.136c52.497,-99.753 178.897,-136.649 282.089,-82.342Z" style="fill:#fefefe;" />
        <path d="M1045.19,683.859c121.403,63.891 169.824,211.04 108.063,328.396c-61.761,117.356 -210.466,160.763 -331.869,96.873c-121.403,-63.891 -169.824,-211.04 -108.063,-328.396c61.761,-117.356 210.466,-160.763 331.869,-96.873Z" style="fill:#1f1c2e;" />
        <path d="M793.873,825.367c233.7,122.989 340.441,380.543 238.216,574.788c-102.225,194.244 -374.954,252.094 -608.654,129.104c-233.7,-122.989 -340.441,-380.543 -238.216,-574.787c102.225,-194.245 374.954,-252.095 608.654,-129.105Z" style="fill:#1f1c2e;" />
        <path d="M725.192,1089.31c45.526,23.959 66.32,74.132 46.406,111.971c-19.914,37.84 -73.043,49.11 -118.569,25.151c-45.526,-23.959 -66.32,-74.132 -46.406,-111.972c19.914,-37.84 73.043,-49.109 118.569,-25.15Z" style="fill:#fefefe;" />
        <path d="M705.164,1127.36c51.597,27.153 75.163,84.016 52.594,126.901c-22.569,42.885 -82.782,55.657 -134.378,28.504c-51.597,-27.154 -75.163,-84.016 -52.594,-126.901c22.569,-42.886 82.782,-55.658 134.378,-28.504Z" style="fill:#1f1c2e;" />
        <path d="M1303.15,538.163c176.034,92.642 246.246,306.008 156.692,476.174c-89.553,170.166 -305.177,233.107 -481.21,140.465c-176.034,-92.641 -246.246,-306.008 -156.692,-476.174c89.553,-170.166 305.176,-233.106 481.21,-140.465Z" style="fill:#f3f6fd;" />
        <path d="M1256.94,532.569c154.788,81.461 215.748,270.555 136.044,422.004c-79.704,151.45 -270.081,208.273 -424.87,126.812c-154.788,-81.46 -215.748,-270.554 -136.044,-422.004c79.703,-151.45 270.081,-208.272 424.87,-126.812Z" style="fill:#fefefe;" />
        <path d="M348.794,1013.26c22.905,-13.352 47.775,-0.264 54.975,16.228c7.2,16.493 -3.271,36.389 -26.177,49.74c-16.557,10.341 -46.793,13.483 -70.681,13.615c-13.417,-19.764 -27.946,-46.465 -28.798,-65.968c-1.964,-26.44 8.506,-46.336 26.177,-49.739c17.67,-3.404 42.539,9.684 44.504,36.124Z" style="fill:#fefefe;" />
        <path d="M1331.13,485.005c206.385,108.614 288.701,358.767 183.708,558.273c-104.994,199.505 -357.794,273.297 -564.178,164.683c-206.385,-108.615 -288.701,-358.768 -183.708,-558.273c104.994,-199.506 357.793,-273.298 564.178,-164.683Z" style="fill:#1f1c2e;" />
        <path d="M889.851,442.842c121.403,63.89 169.825,211.039 108.064,328.395c-61.761,117.356 -210.467,160.763 -331.87,96.873c-121.402,-63.891 -169.824,-211.04 -108.063,-328.396c61.761,-117.356 210.467,-160.763 331.869,-96.872Z" style="fill:#1f1c2e;" />
        <path d="M1355.46,945.825c151.754,79.863 212.28,263.799 135.079,410.494c-77.201,146.695 -263.083,200.954 -414.836,121.091c-151.754,-79.863 -212.281,-263.8 -135.08,-410.495c77.202,-146.695 263.084,-200.954 414.837,-121.09Z" style="fill:#1f1c2e;" />
        <path d="M1174.58,1329.55c94.087,49.516 130.732,165.232 81.781,258.247c-48.951,93.015 -165.08,128.331 -259.167,78.816c-94.087,-49.515 -130.732,-165.232 -81.781,-258.247c48.951,-93.015 165.08,-128.331 259.167,-78.816Z" style="fill:#1f1c2e;" />
        <path d="M1139.73,1381.43c60.926,32.063 84.903,106.523 53.511,166.173c-31.392,59.65 -106.342,82.047 -167.267,49.983c-60.926,-32.063 -84.903,-106.522 -53.511,-166.172c31.392,-59.65 106.342,-82.047 167.267,-49.984Z" style="fill:#ffd5ac;" />
        <path d="M861.876,496c91.052,47.918 127.368,158.28 81.047,246.297c-46.32,88.017 -157.85,120.572 -248.902,72.654c-91.052,-47.918 -127.368,-158.28 -81.047,-246.297c46.32,-88.017 157.85,-120.572 248.902,-72.654Z" style="fill:#fefefe;" />
        <path d="M1327.48,998.983c121.403,63.891 169.825,211.04 108.064,328.396c-61.761,117.356 -210.467,160.763 -331.87,96.872c-121.402,-63.89 -169.824,-211.04 -108.063,-328.396c61.761,-117.356 210.467,-160.763 331.869,-96.872Z" style="fill:#f3f6fd;" />
        <path d="M1316.87,939.092c103.192,54.307 144.351,179.384 91.854,279.136c-52.497,99.753 -178.897,136.649 -282.089,82.342c-103.192,-54.307 -144.351,-179.384 -91.854,-279.136c52.497,-99.753 178.897,-136.649 282.089,-82.342Z" style="fill:#fefefe;" />
        <path d="M1045.19,683.859c121.403,63.891 169.824,211.04 108.063,328.396c-61.761,117.356 -210.466,160.763 -331.869,96.873c-121.403,-63.891 -169.824,-211.04 -108.063,-328.396c61.761,-117.356 210.466,-160.763 331.869,-96.873Z" style="fill:#1f1c2e;" />
        <path d="M793.873,825.367c233.7,122.989 340.441,380.543 238.216,574.788c-102.225,194.244 -374.954,252.094 -608.654,129.104c-233.7,-122.989 -340.441,-380.543 -238.216,-574.787c102.225,-194.245 374.954,-252.095 608.654,-129.105Z" style="fill:#1f1c2e;" />
        <path d="M725.192,1089.31c45.526,23.959 66.32,74.132 46.406,111.971c-19.914,37.84 -73.043,49.11 -118.569,25.151c-45.526,-23.959 -66.32,-74.132 -46.406,-111.972c19.914,-37.84 73.043,-49.109 118.569,-25.15Z" style="fill:#fefefe;" />
        <path d="M705.164,1127.36c51.597,27.153 75.163,84.016 52.594,126.901c-22.569,42.885 -82.782,55.657 -134.378,28.504c-51.597,-27.154 -75.163,-84.016 -52.594,-126.901c22.569,-42.886 82.782,-55.658 134.378,-28.504Z" style="fill:#1f1c2e;" />
        <path d="M1303.15,538.163c176.034,92.642 246.246,306.008 156.692,476.174c-89.553,170.166 -305.177,233.107 -481.21,140.465c-176.034,-92.641 -246.246,-306.008 -156.692,-476.174c89.553,-170.166 305.176,-233.106 481.21,-140.465Z" style="fill:#f3f6fd;" />
        <path d="M1256.94,532.569c154.788,81.461 215.748,270.555 136.044,422.004c-79.704,151.45 -270.081,208.273 -424.87,126.812c-154.788,-81.46 -215.748,-270.554 -136.044,-422.004c79.703,-151.45 270.081,-208.272 424.87,-126.812Z" style="fill:#fefefe;" />
        <path d="M348.794,1013.26c22.905,-13.352 47.775,-0.264 54.975,16.228c7.2,16.493 -3.271,36.389 -26.177,49.74c-16.557,10.341 -46.793,13.483 -70.681,13.615c-13.417,-19.764 -27.946,-46.465 -28.798,-65.968c-1.964,-26.44 8.506,-46.336 26.177,-49.739c17.67,-3.404 42.539,9.684 44.504,36.124Z" style="fill:#fefefe;" />
      </g>
      <ellipse cx="1847.67" cy="902.801" rx="243.835" ry="238.94" style="fill:#fefefe;" />
    </g>
  </g>
</svg>